# xmcd
# 
# Track frame offsets:
#     150
#     10053
#     37772
#     64635
#     70794
#     98330
#     121619
#     149387
#     167537
#     178867
#     206673
#     241672
# 
# Disc length: 3495
# 
# Revision: 1
# Processed by: cddbd v1.5.2PL0 Copyright (c) Steve Scherf et al.
# Submitted via: BonkEnc v1.0.8
# 
DISCID=8c0da50c
DTITLE=Vijay Iyer, Rudresh Mahanthappa, Stephan Crump, Tyshawn Sorey - Bloodsutra
DYEAR=2003
DGENRE=Contemporary Jazz
TTITLE0=Proximity(Crossroads)
TTITLE1=Brute Facts
TTITLE2=Habeas Corpus
TTITLE3=Ascent
TTITLE4=When History Sleeps
TTITLE5=Questions Of Agency
TTITLE6=Kinship
TTITLE7=Stigmatism
TTITLE8=That Much Music
TTITLE9=Imagined Nations
TTITLE10=Because Of Guns(Hey Joe Redux)
TTITLE11=Desiring
EXTD=YEAR: 2003
EXTT0=
EXTT1=
EXTT2=
EXTT3=
EXTT4=
EXTT5=
EXTT6=
EXTT7=
EXTT8=
EXTT9=
EXTT10=
EXTT11=
PLAYORDER=
